<svg xmlns="http://www.w3.org/2000/svg" width="1200" height="1000" viewBox="0 0 1200 1000"><rect width="1200" height="1000" fill="#0b0d10"/><path d="M1828.4 815.8L719.2 428.8M1828.4 815.8L56.1 2014.8M1764.2 859.2L655.0 441.2M1669.0 760.2L-38.4 1717.2M1693.0 907.3L587.3 454.4M1529.4 711.5L-108.9 1495.2M1613.8 961.0L515.6 468.3M1405.9 668.4L-163.4 1323.3M1524.8 1021.1L439.7 483.0M1296.1 630.1L-207.0 1186.3M1424.4 1089.1L359.2 498.7M1197.7 595.7L-242.5 1074.4M1310.1 1166.4L273.6 515.3M1109.0 564.8L-272.0 981.4M1178.7 1255.3L182.4 533.0M1028.7 536.8L-296.9 902.9M1026.3 1358.4L85.1 551.9M955.6 511.3L-318.2 835.7M847.3 1479.5L-19.0 572.1M888.9 488.0L-336.7 777.6M634.0 1623.8L-130.5 593.8M827.6 466.6L-352.8 726.7M375.6 1798.7L-250.5 617.0M771.3 447.0L-367.1 681.9M56.1 2014.8L-379.7 642.1M719.2 428.8L-379.7 642.1" stroke="#4da3ff" stroke-opacity="0.07" stroke-width="1" fill="none"/><path d="M821.6 506.0L653.3 575.9M833.8 510.6L664.8 581.4M828.2 516.5L660.0 587.2M827.1 500.0L658.1 570.0M788.7 493.5L622.5 560.9M800.4 498.0L633.4 566.2M795.2 503.8L628.9 571.9M793.9 487.7L626.9 555.0M822.8 505.7L693.4 301.9M832.6 510.8L702.8 305.3M821.2 514.1L690.9 309.7M834.1 502.4L705.2 297.4M787.7 493.8L690.9 302.2M801.4 497.7L705.3 304.9M789.7 502.0L692.5 310.2M799.3 489.5L703.6 297.0M648.9 573.7L704.1 305.1M637.7 568.3L692.1 302.0M650.7 571.2L705.5 304.8M635.8 570.7L690.6 302.4M637.7 568.3L392.5 437.9M648.9 573.7L402.8 442.8M639.0 579.4L392.6 449.9M647.6 562.5L402.6 430.7M692.1 302.0L415.2 328.5M704.1 305.1L425.8 332.3M697.6 313.2L420.5 341.2M698.5 293.9L420.4 319.6M403.9 443.3L427.0 332.7M391.4 437.4L414.0 328.1M409.0 441.7L431.9 332.4M386.1 438.9L408.9 328.4M393.8 439.9L350.2 620.2M401.5 440.8L357.6 622.6M404.9 442.3L361.3 622.9M390.3 438.3L346.4 619.9M393.7 437.1L323.7 599.4M401.6 443.6L331.0 607.0M404.3 442.1L334.1 604.3M390.9 438.6L320.5 602.0M353.9 621.4L327.3 603.2M827.7 508.3L794.5 495.7M702.1 304.6L715.8 259.7M694.0 302.5L707.7 257.9M702.8 305.2L716.5 260.4M693.3 302.0L707.0 257.0M650.4 266.2L646.9 264.8M646.9 264.8L646.6 263.1M646.6 263.1L649.7 261.2M649.7 261.2L655.8 259.2M655.8 259.2L664.7 257.2M664.7 257.2L675.7 255.3M675.7 255.3L688.4 253.6M688.4 253.6L702.1 252.2M702.1 252.2L716.1 251.1M716.1 251.1L729.9 250.4M729.9 250.4L742.7 250.1M742.7 250.1L754.0 250.2M754.0 250.2L763.2 250.7M763.2 250.7L770.0 251.7M770.0 251.7L774.0 253.0M774.0 253.0L774.9 254.5M774.9 254.5L772.7 256.4M772.7 256.4L767.5 258.3M767.5 258.3L759.3 260.3M759.3 260.3L748.6 262.3M748.6 262.3L735.9 264.1M735.9 264.1L721.8 265.6M721.8 265.6L707.1 266.8M707.1 266.8L692.5 267.6M692.5 267.6L678.8 268.0M678.8 268.0L666.8 267.9M666.8 267.9L657.2 267.2M657.2 267.2L650.4 266.2M659.5 251.2L656.8 250.2M656.8 250.2L656.9 248.9M656.9 248.9L659.8 247.4M659.8 247.4L665.3 245.8M665.3 245.8L673.0 244.2M673.0 244.2L682.6 242.7M682.6 242.7L693.6 241.3M693.6 241.3L705.3 240.1M705.3 240.1L717.3 239.2M717.3 239.2L729.0 238.5M729.0 238.5L739.8 238.2M739.8 238.2L749.2 238.3M749.2 238.3L756.8 238.6M756.8 238.6L762.3 239.3M762.3 239.3L765.3 240.3M765.3 240.3L765.7 241.6M765.7 241.6L763.4 243.0M763.4 243.0L758.5 244.5M758.5 244.5L751.3 246.1M751.3 246.1L742.0 247.7M742.0 247.7L731.0 249.1M731.0 249.1L719.0 250.4M719.0 250.4L706.5 251.4M706.5 251.4L694.2 252.1M694.2 252.1L682.8 252.5M682.8 252.5L672.9 252.4M672.9 252.4L665.0 252.0M665.0 252.0L659.5 251.2M424.0 331.7L410.6 260.0M416.9 329.2L403.5 257.9M426.7 328.4L413.5 257.0M414.1 332.4L400.6 260.9M400.5 259.7L490.3 285.7M413.6 258.2L504.1 284.1M407.3 266.3L497.4 292.9M406.8 251.5L497.0 276.9M413.6 258.2L336.9 236.3M400.5 259.7L324.4 237.6M407.3 266.3L331.0 243.8M406.8 251.5L330.3 230.1M683.0 535.8L684.3 516.6M684.3 516.6L687.2 497.2M687.2 497.2L692.0 477.7M692.0 477.7L698.4 458.6M698.4 458.6L706.5 440.1M706.5 440.1L716.0 422.4M716.0 422.4L726.8 405.9M726.8 405.9L738.8 390.7M738.8 390.7L751.8 377.2M751.8 377.2L765.5 365.4M765.5 365.4L779.9 355.6M779.9 355.6L794.5 347.8M794.5 347.8L809.3 342.2M809.3 342.2L824.0 338.7M824.0 338.7L838.4 337.4M838.4 337.4L852.4 338.3M852.4 338.3L865.7 341.2M865.7 341.2L878.2 346.2M878.2 346.2L889.7 353.1M889.7 353.1L900.2 361.8M900.2 361.8L909.5 372.1M909.5 372.1L917.6 383.9M917.6 383.9L924.3 397.0M924.3 397.0L929.6 411.2M929.6 411.2L933.5 426.4M933.5 426.4L936.0 442.4M936.0 442.4L937.0 459.0M937.0 459.0L936.6 476.0M936.6 476.0L934.7 493.2M934.7 493.2L931.5 510.4M931.5 510.4L926.9 527.5M926.9 527.5L921.1 544.3M921.1 544.3L914.0 560.6M914.0 560.6L905.7 576.2M905.7 576.2L896.4 591.0M896.4 591.0L886.2 604.9M886.2 604.9L875.0 617.6M875.0 617.6L863.1 629.0M863.1 629.0L850.5 639.1M850.5 639.1L837.4 647.6M837.4 647.6L823.9 654.4M823.9 654.4L810.2 659.5M810.2 659.5L796.4 662.8M796.4 662.8L782.7 664.1M782.7 664.1L769.2 663.5M769.2 663.5L756.1 660.8M756.1 660.8L743.6 656.2M743.6 656.2L731.9 649.5M731.9 649.5L721.0 640.9M721.0 640.9L711.3 630.4M711.3 630.4L702.8 618.2M702.8 618.2L695.6 604.2M695.6 604.2L690.0 588.8M690.0 588.8L686.0 572.1M686.0 572.1L683.6 554.4M683.6 554.4L683.0 535.8M671.6 530.7L672.8 511.7M672.8 511.7L675.7 492.4M675.7 492.4L680.4 473.2M680.4 473.2L686.8 454.2M686.8 454.2L694.7 435.8M694.7 435.8L704.2 418.3M704.2 418.3L714.9 402.0M714.9 402.0L726.9 387.0M726.9 387.0L739.8 373.5M739.8 373.5L753.4 361.9M753.4 361.9L767.7 352.2M767.7 352.2L782.2 344.5M782.2 344.5L797.0 338.9M797.0 338.9L811.6 335.5M811.6 335.5L826.0 334.2M826.0 334.2L839.9 335.1M839.9 335.1L853.2 338.1M853.2 338.1L865.7 343.0M865.7 343.0L877.2 349.9M877.2 349.9L887.7 358.5M887.7 358.5L897.0 368.7M897.0 368.7L905.1 380.4M905.1 380.4L911.8 393.5M911.8 393.5L917.2 407.6M917.2 407.6L921.1 422.7M921.1 422.7L923.6 438.6M923.6 438.6L924.7 455.1M924.7 455.1L924.3 471.9M924.3 471.9L922.5 489.0M922.5 489.0L919.3 506.1M919.3 506.1L914.8 523.1M914.8 523.1L909.0 539.7M909.0 539.7L902.0 555.9M902.0 555.9L893.8 571.4M893.8 571.4L884.6 586.1M884.6 586.1L874.3 599.8M874.3 599.8L863.2 612.4M863.2 612.4L851.4 623.8M851.4 623.8L838.9 633.7M838.9 633.7L825.8 642.1M825.8 642.1L812.4 648.9M812.4 648.9L798.7 653.9M798.7 653.9L785.0 657.1M785.0 657.1L771.3 658.3M771.3 658.3L757.8 657.7M757.8 657.7L744.8 655.0M744.8 655.0L732.3 650.4M732.3 650.4L720.6 643.7M720.6 643.7L709.7 635.2M709.7 635.2L700.0 624.7M700.0 624.7L691.5 612.5M691.5 612.5L684.3 598.7M684.3 598.7L678.7 583.4M678.7 583.4L674.6 566.8M674.6 566.8L672.2 549.2M672.2 549.2L671.6 530.7M697.0 530.7L698.5 511.2M698.5 511.2L702.0 491.3M702.0 491.3L707.6 471.6M707.6 471.6L715.1 452.4M715.1 452.4L724.4 434.2M724.4 434.2L735.4 417.2M735.4 417.2L747.7 401.9M747.7 401.9L761.1 388.4M761.1 388.4L775.4 377.2M775.4 377.2L790.2 368.3M790.2 368.3L805.3 361.8M805.3 361.8L820.4 358.0M820.4 358.0L835.1 356.7M835.1 356.7L849.3 358.0M849.3 358.0L862.7 361.8M862.7 361.8L875.1 367.9M875.1 367.9L886.2 376.2M886.2 376.2L896.0 386.6M896.0 386.6L904.3 398.8M904.3 398.8L910.9 412.5M910.9 412.5L915.9 427.6M915.9 427.6L919.2 443.7M919.2 443.7L920.7 460.7M920.7 460.7L920.4 478.2M920.4 478.2L918.4 496.0M918.4 496.0L914.8 513.8M914.8 513.8L909.5 531.4M909.5 531.4L902.7 548.5M902.7 548.5L894.5 564.9M894.5 564.9L884.9 580.3M884.9 580.3L874.2 594.5M874.2 594.5L862.4 607.3M862.4 607.3L849.7 618.4M849.7 618.4L836.4 627.8M836.4 627.8L822.5 635.2M822.5 635.2L808.4 640.5M808.4 640.5L794.2 643.6M794.2 643.6L780.1 644.3M780.1 644.3L766.4 642.7M766.4 642.7L753.3 638.6M753.3 638.6L741.1 632.1M741.1 632.1L729.9 623.3M729.9 623.3L720.1 612.3M720.1 612.3L711.8 599.2M711.8 599.2L705.2 584.2M705.2 584.2L700.5 567.6M700.5 567.6L697.7 549.7M697.7 549.7L697.0 530.7M690.7 528.0L692.1 508.5M692.1 508.5L695.6 488.7M695.6 488.7L701.1 469.1M701.1 469.1L708.6 450.0M708.6 450.0L717.9 431.9M717.9 431.9L728.8 415.0M728.8 415.0L741.0 399.7M741.0 399.7L754.4 386.4M754.4 386.4L768.6 375.2M768.6 375.2L783.4 366.3M783.4 366.3L798.5 359.9M798.5 359.9L813.5 356.1M813.5 356.1L828.3 354.8M828.3 354.8L842.4 356.1M842.4 356.1L855.8 359.9M855.8 359.9L868.2 366.0M868.2 366.0L879.3 374.3M879.3 374.3L889.1 384.7M889.1 384.7L897.4 396.8M897.4 396.8L904.0 410.5M904.0 410.5L909.0 425.5M909.0 425.5L912.3 441.6M912.3 441.6L913.8 458.5M913.8 458.5L913.6 475.9M913.6 475.9L911.7 493.7M911.7 493.7L908.0 511.4M908.0 511.4L902.8 528.9M902.8 528.9L896.0 545.9M896.0 545.9L887.8 562.2M887.8 562.2L878.3 577.5M878.3 577.5L867.6 591.7M867.6 591.7L855.9 604.4M855.9 604.4L843.2 615.5M843.2 615.5L829.9 624.8M829.9 624.8L816.1 632.2M816.1 632.2L802.0 637.4M802.0 637.4L787.8 640.5M787.8 640.5L773.7 641.2M773.7 641.2L760.0 639.5M760.0 639.5L747.0 635.4M747.0 635.4L734.7 629.0M734.7 629.0L723.6 620.2M723.6 620.2L713.8 609.2M713.8 609.2L705.5 596.2M705.5 596.2L698.9 581.2M698.9 581.2L694.1 564.7M694.1 564.7L691.4 546.8M691.4 546.8L690.7 528.0M807.8 508.8L809.9 500.1M809.9 500.1L815.0 492.9M815.0 492.9L821.6 489.1M821.6 489.1L828.0 489.9M828.0 489.9L832.5 494.8M832.5 494.8L833.9 502.6M833.9 502.6L831.8 511.3M831.8 511.3L826.8 518.4M826.8 518.4L820.2 522.2M820.2 522.2L813.8 521.6M813.8 521.6L809.2 516.7M809.2 516.7L807.8 508.8M788.0 501.2L790.1 492.6M790.1 492.6L795.1 485.5M795.1 485.5L801.7 481.8M801.7 481.8L808.1 482.6M808.1 482.6L812.5 487.5M812.5 487.5L813.9 495.2M813.9 495.2L811.9 503.7M811.9 503.7L806.9 510.8M806.9 510.8L800.4 514.5M800.4 514.5L794.0 513.8M794.0 513.8L789.5 509.0M789.5 509.0L788.0 501.2M807.8 508.8L697.0 530.7M789.2 494.7L701.1 469.1M812.2 496.1L735.4 417.2M796.7 484.2L768.6 375.2M821.6 489.1L820.4 358.0M806.6 482.0L855.8 359.9M830.6 491.9L896.0 386.6M813.2 489.2L909.0 425.5M833.9 502.6L920.4 478.2M812.7 501.7L902.8 528.9M829.5 515.2L884.9 580.3M805.4 512.1L843.2 615.5M820.2 522.2L808.4 640.5M795.5 514.4L760.0 639.5M811.2 519.6L729.9 623.3M788.8 507.3L698.9 581.2M147.2 662.2L146.5 639.2M146.5 639.2L148.4 615.8M148.4 615.8L153.1 592.2M153.1 592.2L160.3 568.9M160.3 568.9L170.1 546.2M170.1 546.2L182.3 524.4M182.3 524.4L196.7 504.0M196.7 504.0L213.0 485.1M213.0 485.1L230.9 468.2M230.9 468.2L250.3 453.3M250.3 453.3L270.7 440.8M270.7 440.8L291.8 430.8M291.8 430.8L313.4 423.3M313.4 423.3L335.1 418.5M335.1 418.5L356.5 416.3M356.5 416.3L377.5 416.7M377.5 416.7L397.7 419.6M397.7 419.6L416.9 424.9M416.9 424.9L434.9 432.5M434.9 432.5L451.4 442.3M451.4 442.3L466.3 454.1M466.3 454.1L479.6 467.6M479.6 467.6L491.0 482.7M491.0 482.7L500.4 499.2M500.4 499.2L507.9 516.8M507.9 516.8L513.4 535.4M513.4 535.4L516.8 554.8M516.8 554.8L518.1 574.7M518.1 574.7L517.5 594.9M517.5 594.9L514.8 615.2M514.8 615.2L510.1 635.4M510.1 635.4L503.5 655.3M503.5 655.3L495.1 674.8M495.1 674.8L484.9 693.5M484.9 693.5L473.1 711.4M473.1 711.4L459.7 728.3M459.7 728.3L444.9 743.9M444.9 743.9L428.8 758.1M428.8 758.1L411.5 770.8M411.5 770.8L393.3 781.7M393.3 781.7L374.3 790.8M374.3 790.8L354.6 797.9M354.6 797.9L334.6 802.9M334.6 802.9L314.4 805.6M314.4 805.6L294.2 806.0M294.2 806.0L274.3 804.0M274.3 804.0L255.0 799.7M255.0 799.7L236.4 792.9M236.4 792.9L219.0 783.7M219.0 783.7L202.9 772.1M202.9 772.1L188.3 758.4M188.3 758.4L175.6 742.5M175.6 742.5L165.0 724.7M165.0 724.7L156.6 705.2M156.6 705.2L150.6 684.3M150.6 684.3L147.2 662.2M139.2 654.6L138.4 631.9M138.4 631.9L140.3 608.7M140.3 608.7L144.8 585.4M144.8 585.4L152.0 562.3M152.0 562.3L161.7 539.8M161.7 539.8L173.7 518.3M173.7 518.3L188.0 498.1M188.0 498.1L204.1 479.5M204.1 479.5L221.9 462.7M221.9 462.7L241.1 448.1M241.1 448.1L261.3 435.7M261.3 435.7L282.3 425.9M282.3 425.9L303.7 418.5M303.7 418.5L325.2 413.7M325.2 413.7L346.5 411.6M346.5 411.6L367.4 412.0M367.4 412.0L387.5 414.9M387.5 414.9L406.5 420.3M406.5 420.3L424.4 427.8M424.4 427.8L440.9 437.6M440.9 437.6L455.8 449.2M455.8 449.2L468.9 462.7M468.9 462.7L480.3 477.7M480.3 477.7L489.8 494.0M489.8 494.0L497.2 511.5M497.2 511.5L502.7 530.0M502.7 530.0L506.1 549.2M506.1 549.2L507.5 568.9M507.5 568.9L506.9 588.9M506.9 588.9L504.2 609.1M504.2 609.1L499.6 629.1M499.6 629.1L493.1 648.8M493.1 648.8L484.8 668.1M484.8 668.1L474.7 686.7M474.7 686.7L463.0 704.4M463.0 704.4L449.7 721.1M449.7 721.1L435.0 736.5M435.0 736.5L419.0 750.6M419.0 750.6L401.8 763.1M401.8 763.1L383.7 773.9M383.7 773.9L364.8 782.8M364.8 782.8L345.3 789.8M345.3 789.8L325.4 794.6M325.4 794.6L305.3 797.2M305.3 797.2L285.3 797.6M285.3 797.6L265.5 795.6M265.5 795.6L246.3 791.2M246.3 791.2L227.9 784.4M227.9 784.4L210.5 775.2M210.5 775.2L194.5 763.7M194.5 763.7L180.1 750.0M180.1 750.0L167.4 734.3M167.4 734.3L156.8 716.6M156.8 716.6L148.5 697.3M148.5 697.3L142.6 676.5M142.6 676.5L139.2 654.6M170.2 654.7L169.7 631.2M169.7 631.2L172.4 607.3M172.4 607.3L178.3 583.4M178.3 583.4L187.2 560.0M187.2 560.0L199.0 537.6M199.0 537.6L213.4 516.7M213.4 516.7L230.1 497.6M230.1 497.6L248.7 480.8M248.7 480.8L268.8 466.6M268.8 466.6L290.1 455.1M290.1 455.1L312.0 446.7M312.0 446.7L334.1 441.4M334.1 441.4L356.0 439.1M356.0 439.1L377.4 440.0M377.4 440.0L397.8 443.8M397.8 443.8L416.9 450.5M416.9 450.5L434.3 459.8M434.3 459.8L450.0 471.6M450.0 471.6L463.6 485.5M463.6 485.5L475.0 501.4M475.0 501.4L484.1 518.8M484.1 518.8L490.7 537.6M490.7 537.6L494.9 557.4M494.9 557.4L496.6 577.9M496.6 577.9L495.8 598.8M495.8 598.8L492.5 619.8M492.5 619.8L486.9 640.7M486.9 640.7L479.0 661.0M479.0 661.0L468.9 680.7M468.9 680.7L456.7 699.3M456.7 699.3L442.7 716.6M442.7 716.6L427.0 732.3M427.0 732.3L409.7 746.3M409.7 746.3L391.2 758.3M391.2 758.3L371.7 768.0M371.7 768.0L351.5 775.4M351.5 775.4L330.8 780.1M330.8 780.1L309.9 782.1M309.9 782.1L289.3 781.3M289.3 781.3L269.2 777.7M269.2 777.7L250.1 771.1M250.1 771.1L232.2 761.7M232.2 761.7L215.9 749.5M215.9 749.5L201.7 734.7M201.7 734.7L189.7 717.5M189.7 717.5L180.3 698.2M180.3 698.2L173.7 677.1M173.7 677.1L170.2 654.7M165.5 650.5L165.1 627.2M165.1 627.2L167.8 603.5M167.8 603.5L173.6 579.7M173.6 579.7L182.5 556.4M182.5 556.4L194.2 534.2M194.2 534.2L208.5 513.4M208.5 513.4L225.1 494.4M225.1 494.4L243.6 477.7M243.6 477.7L263.7 463.6M263.7 463.6L284.8 452.3M284.8 452.3L306.6 443.9M306.6 443.9L328.7 438.6M328.7 438.6L350.5 436.4M350.5 436.4L371.8 437.3M371.8 437.3L392.1 441.1M392.1 441.1L411.1 447.8M411.1 447.8L428.6 457.1M428.6 457.1L444.2 468.8M444.2 468.8L457.8 482.7M457.8 482.7L469.2 498.5M469.2 498.5L478.2 515.8M478.2 515.8L484.9 534.5M484.9 534.5L489.0 554.2M489.0 554.2L490.7 574.6M490.7 574.6L490.0 595.4M490.0 595.4L486.7 616.4M486.7 616.4L481.1 637.1M481.1 637.1L473.3 657.4M473.3 657.4L463.2 676.9M463.2 676.9L451.1 695.4M451.1 695.4L437.2 712.6M437.2 712.6L421.5 728.3M421.5 728.3L404.3 742.1M404.3 742.1L385.9 754.0M385.9 754.0L366.5 763.7M366.5 763.7L346.3 770.9M346.3 770.9L325.6 775.6M325.6 775.6L304.9 777.6M304.9 777.6L284.3 776.8M284.3 776.8L264.3 773.1M264.3 773.1L245.2 766.5M245.2 766.5L227.4 757.1M227.4 757.1L211.2 744.9M211.2 744.9L197.0 730.2M197.0 730.2L185.1 713.1M185.1 713.1L175.7 693.9M175.7 693.9L169.1 672.9M169.1 672.9L165.5 650.5M329.3 622.2L331.3 611.8M331.3 611.8L338.0 602.9M338.0 602.9L347.5 598.0M347.5 598.0L357.1 598.5M357.1 598.5L364.4 604.1M364.4 604.1L367.4 613.2M367.4 613.2L365.3 623.5M365.3 623.5L358.8 632.3M358.8 632.3L349.5 637.2M349.5 637.2L339.8 636.9M339.8 636.9L332.4 631.4M332.4 631.4L329.3 622.2M313.5 611.1L315.5 600.8M315.5 600.8L322.1 592.1M322.1 592.1L331.5 587.4M331.5 587.4L341.0 587.9M341.0 587.9L348.2 593.4M348.2 593.4L351.2 602.4M351.2 602.4L349.2 612.5M349.2 612.5L342.8 621.1M342.8 621.1L333.5 625.9M333.5 625.9L324.0 625.6M324.0 625.6L316.7 620.2M316.7 620.2L313.5 611.1M329.3 622.2L170.2 654.7M314.6 603.4L173.6 579.7M334.2 607.0L213.4 516.7M324.3 590.5L263.7 463.6M347.5 598.0L334.1 441.4M338.8 587.2L392.1 441.1M361.2 600.7L450.0 471.6M349.4 595.4L478.2 515.8M367.4 613.2L496.6 577.9M350.2 610.0L481.1 637.1M362.5 628.2L456.7 699.3M340.6 622.8L404.3 742.1M349.5 637.2L351.5 775.4M326.3 626.2L284.3 776.8M335.7 634.7L232.2 761.7M315.4 618.2L185.1 713.1M659.1 578.6L627.9 563.5M657.2 577.0L743.2 578.7M660.9 580.2L747.3 581.8M659.7 573.5L746.0 575.2M658.4 583.7L744.5 585.2M550.1 569.5L535.6 561.9M559.0 568.8L544.4 561.3M555.1 564.0L540.6 556.5M553.9 574.3L539.4 566.7M629.7 565.0L541.5 563.1M626.2 562.0L538.5 560.1M628.5 558.5L540.6 556.5M627.3 568.5L539.4 566.7M667.5 563.0L665.8 571.2M665.8 571.2L662.8 579.2M662.8 579.2L658.7 586.7M658.7 586.7L653.6 593.4M653.6 593.4L647.6 599.1M647.6 599.1L641.1 603.5M641.1 603.5L634.2 606.5M634.2 606.5L627.2 608.0M627.2 608.0L620.3 607.8M620.3 607.8L613.9 606.1M613.9 606.1L608.2 602.8M608.2 602.8L603.3 598.0M603.3 598.0L599.6 591.9M599.6 591.9L597.1 584.8M597.1 584.8L596.0 576.9M596.0 576.9L596.3 568.6M596.3 568.6L598.0 560.1M598.0 560.1L601.1 551.8M601.1 551.8L605.4 544.1M605.4 544.1L610.8 537.2M610.8 537.2L616.9 531.5M616.9 531.5L623.7 527.1M623.7 527.1L630.8 524.2M630.8 524.2L637.9 523.0M637.9 523.0L644.7 523.4M644.7 523.4L651.1 525.4M651.1 525.4L656.6 529.0M656.6 529.0L661.3 533.9M661.3 533.9L664.8 540.0M664.8 540.0L667.0 547.1M667.0 547.1L667.9 554.9M667.9 554.9L667.5 563.0M660.0 569.6L657.7 577.4M657.7 577.4L653.3 584.2M653.3 584.2L647.3 589.0M647.3 589.0L640.7 591.1M640.7 591.1L634.5 590.1M634.5 590.1L629.5 586.3M629.5 586.3L626.7 580.0M626.7 580.0L626.3 572.3M626.3 572.3L628.6 564.5M628.6 564.5L633.1 557.6M633.1 557.6L639.2 552.8M639.2 552.8L645.9 550.7M645.9 550.7L652.1 551.8M652.1 551.8L657.0 555.8M657.0 555.8L659.7 562.1M659.7 562.1L660.0 569.6M773.4 584.0L736.8 593.7M736.8 593.7L716.9 584.3M716.9 584.3L753.2 574.9M753.2 574.9L773.4 584.0M773.6 576.1L737.0 585.7M737.0 585.7L717.1 576.5M717.1 576.5L753.4 567.2M753.4 567.2L773.6 576.1M568.7 565.4L528.4 574.9M528.4 574.9L511.4 565.8M511.4 565.8L551.3 556.5M551.3 556.5L568.7 565.4M568.7 557.4L528.3 566.9M528.3 566.9L511.2 557.8M511.2 557.8L551.2 548.6M551.2 548.6L568.7 557.4" stroke="#3a9bff" stroke-opacity="0.11" stroke-width="6" stroke-linecap="round" fill="none"/><path d="M821.6 506.0L653.3 575.9M833.8 510.6L664.8 581.4M828.2 516.5L660.0 587.2M827.1 500.0L658.1 570.0M788.7 493.5L622.5 560.9M800.4 498.0L633.4 566.2M795.2 503.8L628.9 571.9M793.9 487.7L626.9 555.0M822.8 505.7L693.4 301.9M832.6 510.8L702.8 305.3M821.2 514.1L690.9 309.7M834.1 502.4L705.2 297.4M787.7 493.8L690.9 302.2M801.4 497.7L705.3 304.9M789.7 502.0L692.5 310.2M799.3 489.5L703.6 297.0M648.9 573.7L704.1 305.1M637.7 568.3L692.1 302.0M650.7 571.2L705.5 304.8M635.8 570.7L690.6 302.4M637.7 568.3L392.5 437.9M648.9 573.7L402.8 442.8M639.0 579.4L392.6 449.9M647.6 562.5L402.6 430.7M692.1 302.0L415.2 328.5M704.1 305.1L425.8 332.3M697.6 313.2L420.5 341.2M698.5 293.9L420.4 319.6M403.9 443.3L427.0 332.7M391.4 437.4L414.0 328.1M409.0 441.7L431.9 332.4M386.1 438.9L408.9 328.4M393.8 439.9L350.2 620.2M401.5 440.8L357.6 622.6M404.9 442.3L361.3 622.9M390.3 438.3L346.4 619.9M393.7 437.1L323.7 599.4M401.6 443.6L331.0 607.0M404.3 442.1L334.1 604.3M390.9 438.6L320.5 602.0M353.9 621.4L327.3 603.2M827.7 508.3L794.5 495.7M702.1 304.6L715.8 259.7M694.0 302.5L707.7 257.9M702.8 305.2L716.5 260.4M693.3 302.0L707.0 257.0M650.4 266.2L646.9 264.8M646.9 264.8L646.6 263.1M646.6 263.1L649.7 261.2M649.7 261.2L655.8 259.2M655.8 259.2L664.7 257.2M664.7 257.2L675.7 255.3M675.7 255.3L688.4 253.6M688.4 253.6L702.1 252.2M702.1 252.2L716.1 251.1M716.1 251.1L729.9 250.4M729.9 250.4L742.7 250.1M742.7 250.1L754.0 250.2M754.0 250.2L763.2 250.7M763.2 250.7L770.0 251.7M770.0 251.7L774.0 253.0M774.0 253.0L774.9 254.5M774.9 254.5L772.7 256.4M772.7 256.4L767.5 258.3M767.5 258.3L759.3 260.3M759.3 260.3L748.6 262.3M748.6 262.3L735.9 264.1M735.9 264.1L721.8 265.6M721.8 265.6L707.1 266.8M707.1 266.8L692.5 267.6M692.5 267.6L678.8 268.0M678.8 268.0L666.8 267.9M666.8 267.9L657.2 267.2M657.2 267.2L650.4 266.2M659.5 251.2L656.8 250.2M656.8 250.2L656.9 248.9M656.9 248.9L659.8 247.4M659.8 247.4L665.3 245.8M665.3 245.8L673.0 244.2M673.0 244.2L682.6 242.7M682.6 242.7L693.6 241.3M693.6 241.3L705.3 240.1M705.3 240.1L717.3 239.2M717.3 239.2L729.0 238.5M729.0 238.5L739.8 238.2M739.8 238.2L749.2 238.3M749.2 238.3L756.8 238.6M756.8 238.6L762.3 239.3M762.3 239.3L765.3 240.3M765.3 240.3L765.7 241.6M765.7 241.6L763.4 243.0M763.4 243.0L758.5 244.5M758.5 244.5L751.3 246.1M751.3 246.1L742.0 247.7M742.0 247.7L731.0 249.1M731.0 249.1L719.0 250.4M719.0 250.4L706.5 251.4M706.5 251.4L694.2 252.1M694.2 252.1L682.8 252.5M682.8 252.5L672.9 252.4M672.9 252.4L665.0 252.0M665.0 252.0L659.5 251.2M424.0 331.7L410.6 260.0M416.9 329.2L403.5 257.9M426.7 328.4L413.5 257.0M414.1 332.4L400.6 260.9M400.5 259.7L490.3 285.7M413.6 258.2L504.1 284.1M407.3 266.3L497.4 292.9M406.8 251.5L497.0 276.9M413.6 258.2L336.9 236.3M400.5 259.7L324.4 237.6M407.3 266.3L331.0 243.8M406.8 251.5L330.3 230.1M683.0 535.8L684.3 516.6M684.3 516.6L687.2 497.2M687.2 497.2L692.0 477.7M692.0 477.7L698.4 458.6M698.4 458.6L706.5 440.1M706.5 440.1L716.0 422.4M716.0 422.4L726.8 405.9M726.8 405.9L738.8 390.7M738.8 390.7L751.8 377.2M751.8 377.2L765.5 365.4M765.5 365.4L779.9 355.6M779.9 355.6L794.5 347.8M794.5 347.8L809.3 342.2M809.3 342.2L824.0 338.7M824.0 338.7L838.4 337.4M838.4 337.4L852.4 338.3M852.4 338.3L865.7 341.2M865.7 341.2L878.2 346.2M878.2 346.2L889.7 353.1M889.7 353.1L900.2 361.8M900.2 361.8L909.5 372.1M909.5 372.1L917.6 383.9M917.6 383.9L924.3 397.0M924.3 397.0L929.6 411.2M929.6 411.2L933.5 426.4M933.5 426.4L936.0 442.4M936.0 442.4L937.0 459.0M937.0 459.0L936.6 476.0M936.6 476.0L934.7 493.2M934.7 493.2L931.5 510.4M931.5 510.4L926.9 527.5M926.9 527.5L921.1 544.3M921.1 544.3L914.0 560.6M914.0 560.6L905.7 576.2M905.7 576.2L896.4 591.0M896.4 591.0L886.2 604.9M886.2 604.9L875.0 617.6M875.0 617.6L863.1 629.0M863.1 629.0L850.5 639.1M850.5 639.1L837.4 647.6M837.4 647.6L823.9 654.4M823.9 654.4L810.2 659.5M810.2 659.5L796.4 662.8M796.4 662.8L782.7 664.1M782.7 664.1L769.2 663.5M769.2 663.5L756.1 660.8M756.1 660.8L743.6 656.2M743.6 656.2L731.9 649.5M731.9 649.5L721.0 640.9M721.0 640.9L711.3 630.4M711.3 630.4L702.8 618.2M702.8 618.2L695.6 604.2M695.6 604.2L690.0 588.8M690.0 588.8L686.0 572.1M686.0 572.1L683.6 554.4M683.6 554.4L683.0 535.8M671.6 530.7L672.8 511.7M672.8 511.7L675.7 492.4M675.7 492.4L680.4 473.2M680.4 473.2L686.8 454.2M686.8 454.2L694.7 435.8M694.7 435.8L704.2 418.3M704.2 418.3L714.9 402.0M714.9 402.0L726.9 387.0M726.9 387.0L739.8 373.5M739.8 373.5L753.4 361.9M753.4 361.9L767.7 352.2M767.7 352.2L782.2 344.5M782.2 344.5L797.0 338.9M797.0 338.9L811.6 335.5M811.6 335.5L826.0 334.2M826.0 334.2L839.9 335.1M839.9 335.1L853.2 338.1M853.2 338.1L865.7 343.0M865.7 343.0L877.2 349.9M877.2 349.9L887.7 358.5M887.7 358.5L897.0 368.7M897.0 368.7L905.1 380.4M905.1 380.4L911.8 393.5M911.8 393.5L917.2 407.6M917.2 407.6L921.1 422.7M921.1 422.7L923.6 438.6M923.6 438.6L924.7 455.1M924.7 455.1L924.3 471.9M924.3 471.9L922.5 489.0M922.5 489.0L919.3 506.1M919.3 506.1L914.8 523.1M914.8 523.1L909.0 539.7M909.0 539.7L902.0 555.9M902.0 555.9L893.8 571.4M893.8 571.4L884.6 586.1M884.6 586.1L874.3 599.8M874.3 599.8L863.2 612.4M863.2 612.4L851.4 623.8M851.4 623.8L838.9 633.7M838.9 633.7L825.8 642.1M825.8 642.1L812.4 648.9M812.4 648.9L798.7 653.9M798.7 653.9L785.0 657.1M785.0 657.1L771.3 658.3M771.3 658.3L757.8 657.7M757.8 657.7L744.8 655.0M744.8 655.0L732.3 650.4M732.3 650.4L720.6 643.7M720.6 643.7L709.7 635.2M709.7 635.2L700.0 624.7M700.0 624.7L691.5 612.5M691.5 612.5L684.3 598.7M684.3 598.7L678.7 583.4M678.7 583.4L674.6 566.8M674.6 566.8L672.2 549.2M672.2 549.2L671.6 530.7M697.0 530.7L698.5 511.2M698.5 511.2L702.0 491.3M702.0 491.3L707.6 471.6M707.6 471.6L715.1 452.4M715.1 452.4L724.4 434.2M724.4 434.2L735.4 417.2M735.4 417.2L747.7 401.9M747.7 401.9L761.1 388.4M761.1 388.4L775.4 377.2M775.4 377.2L790.2 368.3M790.2 368.3L805.3 361.8M805.3 361.8L820.4 358.0M820.4 358.0L835.1 356.7M835.1 356.7L849.3 358.0M849.3 358.0L862.7 361.8M862.7 361.8L875.1 367.9M875.1 367.9L886.2 376.2M886.2 376.2L896.0 386.6M896.0 386.6L904.3 398.8M904.3 398.8L910.9 412.5M910.9 412.5L915.9 427.6M915.9 427.6L919.2 443.7M919.2 443.7L920.7 460.7M920.7 460.7L920.4 478.2M920.4 478.2L918.4 496.0M918.4 496.0L914.8 513.8M914.8 513.8L909.5 531.4M909.5 531.4L902.7 548.5M902.7 548.5L894.5 564.9M894.5 564.9L884.9 580.3M884.9 580.3L874.2 594.5M874.2 594.5L862.4 607.3M862.4 607.3L849.7 618.4M849.7 618.4L836.4 627.8M836.4 627.8L822.5 635.2M822.5 635.2L808.4 640.5M808.4 640.5L794.2 643.6M794.2 643.6L780.1 644.3M780.1 644.3L766.4 642.7M766.4 642.7L753.3 638.6M753.3 638.6L741.1 632.1M741.1 632.1L729.9 623.3M729.9 623.3L720.1 612.3M720.1 612.3L711.8 599.2M711.8 599.2L705.2 584.2M705.2 584.2L700.5 567.6M700.5 567.6L697.7 549.7M697.7 549.7L697.0 530.7M690.7 528.0L692.1 508.5M692.1 508.5L695.6 488.7M695.6 488.7L701.1 469.1M701.1 469.1L708.6 450.0M708.6 450.0L717.9 431.9M717.9 431.9L728.8 415.0M728.8 415.0L741.0 399.7M741.0 399.7L754.4 386.4M754.4 386.4L768.6 375.2M768.6 375.2L783.4 366.3M783.4 366.3L798.5 359.9M798.5 359.9L813.5 356.1M813.5 356.1L828.3 354.8M828.3 354.8L842.4 356.1M842.4 356.1L855.8 359.9M855.8 359.9L868.2 366.0M868.2 366.0L879.3 374.3M879.3 374.3L889.1 384.7M889.1 384.7L897.4 396.8M897.4 396.8L904.0 410.5M904.0 410.5L909.0 425.5M909.0 425.5L912.3 441.6M912.3 441.6L913.8 458.5M913.8 458.5L913.6 475.9M913.6 475.9L911.7 493.7M911.7 493.7L908.0 511.4M908.0 511.4L902.8 528.9M902.8 528.9L896.0 545.9M896.0 545.9L887.8 562.2M887.8 562.2L878.3 577.5M878.3 577.5L867.6 591.7M867.6 591.7L855.9 604.4M855.9 604.4L843.2 615.5M843.2 615.5L829.9 624.8M829.9 624.8L816.1 632.2M816.1 632.2L802.0 637.4M802.0 637.4L787.8 640.5M787.8 640.5L773.7 641.2M773.7 641.2L760.0 639.5M760.0 639.5L747.0 635.4M747.0 635.4L734.7 629.0M734.7 629.0L723.6 620.2M723.6 620.2L713.8 609.2M713.8 609.2L705.5 596.2M705.5 596.2L698.9 581.2M698.9 581.2L694.1 564.7M694.1 564.7L691.4 546.8M691.4 546.8L690.7 528.0M807.8 508.8L809.9 500.1M809.9 500.1L815.0 492.9M815.0 492.9L821.6 489.1M821.6 489.1L828.0 489.9M828.0 489.9L832.5 494.8M832.5 494.8L833.9 502.6M833.9 502.6L831.8 511.3M831.8 511.3L826.8 518.4M826.8 518.4L820.2 522.2M820.2 522.2L813.8 521.6M813.8 521.6L809.2 516.7M809.2 516.7L807.8 508.8M788.0 501.2L790.1 492.6M790.1 492.6L795.1 485.5M795.1 485.5L801.7 481.8M801.7 481.8L808.1 482.6M808.1 482.6L812.5 487.5M812.5 487.5L813.9 495.2M813.9 495.2L811.9 503.7M811.9 503.7L806.9 510.8M806.9 510.8L800.4 514.5M800.4 514.5L794.0 513.8M794.0 513.8L789.5 509.0M789.5 509.0L788.0 501.2M807.8 508.8L697.0 530.7M789.2 494.7L701.1 469.1M812.2 496.1L735.4 417.2M796.7 484.2L768.6 375.2M821.6 489.1L820.4 358.0M806.6 482.0L855.8 359.9M830.6 491.9L896.0 386.6M813.2 489.2L909.0 425.5M833.9 502.6L920.4 478.2M812.7 501.7L902.8 528.9M829.5 515.2L884.9 580.3M805.4 512.1L843.2 615.5M820.2 522.2L808.4 640.5M795.5 514.4L760.0 639.5M811.2 519.6L729.9 623.3M788.8 507.3L698.9 581.2M147.2 662.2L146.5 639.2M146.5 639.2L148.4 615.8M148.4 615.8L153.1 592.2M153.1 592.2L160.3 568.9M160.3 568.9L170.1 546.2M170.1 546.2L182.3 524.4M182.3 524.4L196.7 504.0M196.7 504.0L213.0 485.1M213.0 485.1L230.9 468.2M230.9 468.2L250.3 453.3M250.3 453.3L270.7 440.8M270.7 440.8L291.8 430.8M291.8 430.8L313.4 423.3M313.4 423.3L335.1 418.5M335.1 418.5L356.5 416.3M356.5 416.3L377.5 416.7M377.5 416.7L397.7 419.6M397.7 419.6L416.9 424.9M416.9 424.9L434.9 432.5M434.9 432.5L451.4 442.3M451.4 442.3L466.3 454.1M466.3 454.1L479.6 467.6M479.6 467.6L491.0 482.7M491.0 482.7L500.4 499.2M500.4 499.2L507.9 516.8M507.9 516.8L513.4 535.4M513.4 535.4L516.8 554.8M516.8 554.8L518.1 574.7M518.1 574.7L517.5 594.9M517.5 594.9L514.8 615.2M514.8 615.2L510.1 635.4M510.1 635.4L503.5 655.3M503.5 655.3L495.1 674.8M495.1 674.8L484.9 693.5M484.9 693.5L473.1 711.4M473.1 711.4L459.7 728.3M459.7 728.3L444.9 743.9M444.9 743.9L428.8 758.1M428.8 758.1L411.5 770.8M411.5 770.8L393.3 781.7M393.3 781.7L374.3 790.8M374.3 790.8L354.6 797.9M354.6 797.9L334.6 802.9M334.6 802.9L314.4 805.6M314.4 805.6L294.2 806.0M294.2 806.0L274.3 804.0M274.3 804.0L255.0 799.7M255.0 799.7L236.4 792.9M236.4 792.9L219.0 783.7M219.0 783.7L202.9 772.1M202.9 772.1L188.3 758.4M188.3 758.4L175.6 742.5M175.6 742.5L165.0 724.7M165.0 724.7L156.6 705.2M156.6 705.2L150.6 684.3M150.6 684.3L147.2 662.2M139.2 654.6L138.4 631.9M138.4 631.9L140.3 608.7M140.3 608.7L144.8 585.4M144.8 585.4L152.0 562.3M152.0 562.3L161.7 539.8M161.7 539.8L173.7 518.3M173.7 518.3L188.0 498.1M188.0 498.1L204.1 479.5M204.1 479.5L221.9 462.7M221.9 462.7L241.1 448.1M241.1 448.1L261.3 435.7M261.3 435.7L282.3 425.9M282.3 425.9L303.7 418.5M303.7 418.5L325.2 413.7M325.2 413.7L346.5 411.6M346.5 411.6L367.4 412.0M367.4 412.0L387.5 414.9M387.5 414.9L406.5 420.3M406.5 420.3L424.4 427.8M424.4 427.8L440.9 437.6M440.9 437.6L455.8 449.2M455.8 449.2L468.9 462.7M468.9 462.7L480.3 477.7M480.3 477.7L489.8 494.0M489.8 494.0L497.2 511.5M497.2 511.5L502.7 530.0M502.7 530.0L506.1 549.2M506.1 549.2L507.5 568.9M507.5 568.9L506.9 588.9M506.9 588.9L504.2 609.1M504.2 609.1L499.6 629.1M499.6 629.1L493.1 648.8M493.1 648.8L484.8 668.1M484.8 668.1L474.7 686.7M474.7 686.7L463.0 704.4M463.0 704.4L449.7 721.1M449.7 721.1L435.0 736.5M435.0 736.5L419.0 750.6M419.0 750.6L401.8 763.1M401.8 763.1L383.7 773.9M383.7 773.9L364.8 782.8M364.8 782.8L345.3 789.8M345.3 789.8L325.4 794.6M325.4 794.6L305.3 797.2M305.3 797.2L285.3 797.6M285.3 797.6L265.5 795.6M265.5 795.6L246.3 791.2M246.3 791.2L227.9 784.4M227.9 784.4L210.5 775.2M210.5 775.2L194.5 763.7M194.5 763.7L180.1 750.0M180.1 750.0L167.4 734.3M167.4 734.3L156.8 716.6M156.8 716.6L148.5 697.3M148.5 697.3L142.6 676.5M142.6 676.5L139.2 654.6M170.2 654.7L169.7 631.2M169.7 631.2L172.4 607.3M172.4 607.3L178.3 583.4M178.3 583.4L187.2 560.0M187.2 560.0L199.0 537.6M199.0 537.6L213.4 516.7M213.4 516.7L230.1 497.6M230.1 497.6L248.7 480.8M248.7 480.8L268.8 466.6M268.8 466.6L290.1 455.1M290.1 455.1L312.0 446.7M312.0 446.7L334.1 441.4M334.1 441.4L356.0 439.1M356.0 439.1L377.4 440.0M377.4 440.0L397.8 443.8M397.8 443.8L416.9 450.5M416.9 450.5L434.3 459.8M434.3 459.8L450.0 471.6M450.0 471.6L463.6 485.5M463.6 485.5L475.0 501.4M475.0 501.4L484.1 518.8M484.1 518.8L490.7 537.6M490.7 537.6L494.9 557.4M494.9 557.4L496.6 577.9M496.6 577.9L495.8 598.8M495.8 598.8L492.5 619.8M492.5 619.8L486.9 640.7M486.9 640.7L479.0 661.0M479.0 661.0L468.9 680.7M468.9 680.7L456.7 699.3M456.7 699.3L442.7 716.6M442.7 716.6L427.0 732.3M427.0 732.3L409.7 746.3M409.7 746.3L391.2 758.3M391.2 758.3L371.7 768.0M371.7 768.0L351.5 775.4M351.5 775.4L330.8 780.1M330.8 780.1L309.9 782.1M309.9 782.1L289.3 781.3M289.3 781.3L269.2 777.7M269.2 777.7L250.1 771.1M250.1 771.1L232.2 761.7M232.2 761.7L215.9 749.5M215.9 749.5L201.7 734.7M201.7 734.7L189.7 717.5M189.7 717.5L180.3 698.2M180.3 698.2L173.7 677.1M173.7 677.1L170.2 654.7M165.5 650.5L165.1 627.2M165.1 627.2L167.8 603.5M167.8 603.5L173.6 579.7M173.6 579.7L182.5 556.4M182.5 556.4L194.2 534.2M194.2 534.2L208.5 513.4M208.5 513.4L225.1 494.4M225.1 494.4L243.6 477.7M243.6 477.7L263.7 463.6M263.7 463.6L284.8 452.3M284.8 452.3L306.6 443.9M306.6 443.9L328.7 438.6M328.7 438.6L350.5 436.4M350.5 436.4L371.8 437.3M371.8 437.3L392.1 441.1M392.1 441.1L411.1 447.8M411.1 447.8L428.6 457.1M428.6 457.1L444.2 468.8M444.2 468.8L457.8 482.7M457.8 482.7L469.2 498.5M469.2 498.5L478.2 515.8M478.2 515.8L484.9 534.5M484.9 534.5L489.0 554.2M489.0 554.2L490.7 574.6M490.7 574.6L490.0 595.4M490.0 595.4L486.7 616.4M486.7 616.4L481.1 637.1M481.1 637.1L473.3 657.4M473.3 657.4L463.2 676.9M463.2 676.9L451.1 695.4M451.1 695.4L437.2 712.6M437.2 712.6L421.5 728.3M421.5 728.3L404.3 742.1M404.3 742.1L385.9 754.0M385.9 754.0L366.5 763.7M366.5 763.7L346.3 770.9M346.3 770.9L325.6 775.6M325.6 775.6L304.9 777.6M304.9 777.6L284.3 776.8M284.3 776.8L264.3 773.1M264.3 773.1L245.2 766.5M245.2 766.5L227.4 757.1M227.4 757.1L211.2 744.9M211.2 744.9L197.0 730.2M197.0 730.2L185.1 713.1M185.1 713.1L175.7 693.9M175.7 693.9L169.1 672.9M169.1 672.9L165.5 650.5M329.3 622.2L331.3 611.8M331.3 611.8L338.0 602.9M338.0 602.9L347.5 598.0M347.5 598.0L357.1 598.5M357.1 598.5L364.4 604.1M364.4 604.1L367.4 613.2M367.4 613.2L365.3 623.5M365.3 623.5L358.8 632.3M358.8 632.3L349.5 637.2M349.5 637.2L339.8 636.9M339.8 636.9L332.4 631.4M332.4 631.4L329.3 622.2M313.5 611.1L315.5 600.8M315.5 600.8L322.1 592.1M322.1 592.1L331.5 587.4M331.5 587.4L341.0 587.9M341.0 587.9L348.2 593.4M348.2 593.4L351.2 602.4M351.2 602.4L349.2 612.5M349.2 612.5L342.8 621.1M342.8 621.1L333.5 625.9M333.5 625.9L324.0 625.6M324.0 625.6L316.7 620.2M316.7 620.2L313.5 611.1M329.3 622.2L170.2 654.7M314.6 603.4L173.6 579.7M334.2 607.0L213.4 516.7M324.3 590.5L263.7 463.6M347.5 598.0L334.1 441.4M338.8 587.2L392.1 441.1M361.2 600.7L450.0 471.6M349.4 595.4L478.2 515.8M367.4 613.2L496.6 577.9M350.2 610.0L481.1 637.1M362.5 628.2L456.7 699.3M340.6 622.8L404.3 742.1M349.5 637.2L351.5 775.4M326.3 626.2L284.3 776.8M335.7 634.7L232.2 761.7M315.4 618.2L185.1 713.1M659.1 578.6L627.9 563.5M657.2 577.0L743.2 578.7M660.9 580.2L747.3 581.8M659.7 573.5L746.0 575.2M658.4 583.7L744.5 585.2M550.1 569.5L535.6 561.9M559.0 568.8L544.4 561.3M555.1 564.0L540.6 556.5M553.9 574.3L539.4 566.7M629.7 565.0L541.5 563.1M626.2 562.0L538.5 560.1M628.5 558.5L540.6 556.5M627.3 568.5L539.4 566.7M667.5 563.0L665.8 571.2M665.8 571.2L662.8 579.2M662.8 579.2L658.7 586.7M658.7 586.7L653.6 593.4M653.6 593.4L647.6 599.1M647.6 599.1L641.1 603.5M641.1 603.5L634.2 606.5M634.2 606.5L627.2 608.0M627.2 608.0L620.3 607.8M620.3 607.8L613.9 606.1M613.9 606.1L608.2 602.8M608.2 602.8L603.3 598.0M603.3 598.0L599.6 591.9M599.6 591.9L597.1 584.8M597.1 584.8L596.0 576.9M596.0 576.9L596.3 568.6M596.3 568.6L598.0 560.1M598.0 560.1L601.1 551.8M601.1 551.8L605.4 544.1M605.4 544.1L610.8 537.2M610.8 537.2L616.9 531.5M616.9 531.5L623.7 527.1M623.7 527.1L630.8 524.2M630.8 524.2L637.9 523.0M637.9 523.0L644.7 523.4M644.7 523.4L651.1 525.4M651.1 525.4L656.6 529.0M656.6 529.0L661.3 533.9M661.3 533.9L664.8 540.0M664.8 540.0L667.0 547.1M667.0 547.1L667.9 554.9M667.9 554.9L667.5 563.0M660.0 569.6L657.7 577.4M657.7 577.4L653.3 584.2M653.3 584.2L647.3 589.0M647.3 589.0L640.7 591.1M640.7 591.1L634.5 590.1M634.5 590.1L629.5 586.3M629.5 586.3L626.7 580.0M626.7 580.0L626.3 572.3M626.3 572.3L628.6 564.5M628.6 564.5L633.1 557.6M633.1 557.6L639.2 552.8M639.2 552.8L645.9 550.7M645.9 550.7L652.1 551.8M652.1 551.8L657.0 555.8M657.0 555.8L659.7 562.1M659.7 562.1L660.0 569.6M773.4 584.0L736.8 593.7M736.8 593.7L716.9 584.3M716.9 584.3L753.2 574.9M753.2 574.9L773.4 584.0M773.6 576.1L737.0 585.7M737.0 585.7L717.1 576.5M717.1 576.5L753.4 567.2M753.4 567.2L773.6 576.1M568.7 565.4L528.4 574.9M528.4 574.9L511.4 565.8M511.4 565.8L551.3 556.5M551.3 556.5L568.7 565.4M568.7 557.4L528.3 566.9M528.3 566.9L511.2 557.8M511.2 557.8L551.2 548.6M551.2 548.6L568.7 557.4" stroke="#bfe6ff" stroke-opacity="0.92" stroke-width="1.3" stroke-linecap="round" fill="none"/><path d="M839.5 651.4L835.6 653.8L831.8 656.0L827.9 658.2L823.9 660.2L820.0 662.0L816.0 663.8L812.0 665.4L808.0 666.8L804.0 668.1L799.9 669.3L795.9 670.3L791.9 671.2L787.8 671.9L783.8 672.4L779.8 672.9L775.8 673.1L771.8 673.2L767.8 673.1L773.9 649.2L777.3 649.2L780.7 649.2L784.1 649.0L787.6 648.7L791.0 648.3L794.5 647.7L798.0 647.0L801.5 646.1L804.9 645.2L808.4 644.1L811.8 642.9L815.3 641.5L818.7 640.1L822.1 638.5L825.5 636.8L828.9 635.0L832.3 633.0L835.6 631.0Z" fill="#4ade80" fill-opacity="0.45" stroke="#4ade80" stroke-opacity="0.9" stroke-width="1"/><path d="M400.9 784.7L395.5 787.8L390.1 790.8L384.6 793.6L379.1 796.2L373.5 798.7L367.9 801.1L362.2 803.3L356.4 805.3L350.7 807.2L344.8 808.8L339.0 810.4L333.1 811.7L327.3 812.9L321.4 813.9L315.5 814.7L309.6 815.3L303.6 815.8L297.7 816.1L303.7 787.6L308.8 787.4L313.8 787.1L318.9 786.6L324.0 785.9L329.1 785.1L334.2 784.2L339.2 783.1L344.2 781.8L349.2 780.4L354.2 778.8L359.2 777.1L364.1 775.3L369.0 773.3L373.8 771.2L378.6 768.9L383.4 766.5L388.1 764.0L392.7 761.4Z" fill="#4ade80" fill-opacity="0.45" stroke="#4ade80" stroke-opacity="0.9" stroke-width="1"/><path d="M620.3 576.6L620.8 571.3L622.1 566.0L624.3 560.8L627.2 556.1L630.7 551.9L634.7 548.5L639.0 546.0L643.5 544.4L648.0 543.9L652.2 544.4L656.1 545.9L659.5 548.4L662.3 551.7L664.3 555.8L665.5 560.4L665.8 565.4L665.3 570.6L664.0 575.9L661.9 580.9L659.1 585.6L655.6 589.7L651.7 593.1L647.5 595.6L643.1 597.3L638.6 597.9L634.4 597.5L630.4 596.1L627.0 593.7L624.2 590.4L622.0 586.4L620.7 581.7Z" stroke="#f5b544" stroke-opacity="0.75" stroke-width="9.0" fill="none"/><path d="M728.3 578.8L732.5 580.3L737.6 581.4L743.3 582.1L749.1 582.1L754.7 581.7L759.6 580.8L763.6 579.4L766.2 577.7L767.5 575.7L767.2 573.7L765.4 571.7L762.3 570.0L758.1 568.5L753.0 567.4L747.5 566.8L741.8 566.7L736.3 567.2L731.5 568.1L727.6 569.4L724.8 571.1L723.5 573.0L723.6 575.0L725.2 577.0Z" fill="#4ade80" fill-opacity="0.45" stroke="#4ade80" stroke-opacity="0.9" stroke-width="1"/><path d="M521.0 560.0L524.8 561.5L529.6 562.5L535.1 563.2L541.0 563.3L546.8 562.8L552.1 561.9L556.6 560.5L559.9 558.9L561.8 557.0L562.2 555.0L561.1 553.0L558.6 551.3L554.8 549.9L550.0 548.8L544.6 548.2L538.9 548.1L533.2 548.5L528.0 549.4L523.5 550.7L520.2 552.4L518.2 554.3L517.6 556.2L518.6 558.2Z" fill="#4ade80" fill-opacity="0.45" stroke="#4ade80" stroke-opacity="0.9" stroke-width="1"/><path d="M650.4 252.0L655.2 245.6L659.7 242.8L672.1 237.5L681.4 235.3L695.5 232.6L703.0 231.6L711.8 230.8L720.7 230.5L728.2 230.6L741.4 231.5L750.9 232.5L762.4 236.2L767.4 238.3L771.7 243.9L767.1 250.1L763.8 252.9L751.5 258.2L742.8 260.6L728.4 263.1L721.0 264.3L712.1 265.2L703.1 265.6L695.4 265.5L681.4 264.9L671.8 263.7L659.4 260.1L655.1 257.7Z" fill="#a78bfa" fill-opacity="0.45" stroke="#a78bfa" stroke-opacity="0.9" stroke-width="1"/><path d="M443.0 274.8L443.9 268.7L446.7 263.3L451.1 259.5L456.2 257.7L461.4 258.3L502.2 269.4L506.8 272.4L509.8 277.2L511.0 283.2L510.0 289.5L507.2 295.0L502.8 299.0L497.5 300.9L492.2 300.4L451.9 288.1L447.4 285.3L444.3 280.6Z" fill="#38d6e0" fill-opacity="0.45" stroke="#38d6e0" stroke-opacity="0.9" stroke-width="1"/><path d="M318.1 238.2L318.8 232.8L321.3 228.1L325.2 224.7L330.0 223.2L334.8 223.8L366.2 232.4L370.5 235.0L373.4 239.4L374.6 244.7L373.9 250.1L371.3 255.0L367.4 258.5L362.6 260.1L357.6 259.5L326.5 250.1L322.3 247.5L319.4 243.3Z" fill="#38d6e0" fill-opacity="0.45" stroke="#38d6e0" stroke-opacity="0.9" stroke-width="1"/><path d="M319.1 617.1L319.3 612.8L320.3 608.4L322.1 604.2L324.6 600.3L327.6 596.8L331.2 593.9L335.2 591.8L339.3 590.4L343.4 589.9L347.4 590.3L351.2 591.4L354.5 593.4L357.3 596.1L359.4 599.4L360.8 603.1L361.4 607.3L361.2 611.5L360.2 615.8L358.4 620.0L356.0 623.9L353.0 627.3L349.5 630.1L345.6 632.3L341.5 633.7L337.4 634.3L333.4 634.0L329.6 632.9L326.3 631.0L323.4 628.4L321.2 625.1L319.8 621.3Z" stroke="#f5b544" stroke-opacity="0.75" stroke-width="10.8" fill="none"/><path d="M399.4 326.3L400.8 326.9L403.0 327.6L405.8 328.5L409.2 329.4L413.0 330.4L417.2 331.4L421.5 332.3L425.7 333.2L429.7 333.9L433.4 334.6L436.5 335.0L439.0 335.3L440.8 335.4L441.7 335.3L441.9 335.0L441.2 334.5L439.8 333.9L437.6 333.1L434.8 332.3L431.4 331.4L427.7 330.4L423.6 329.5L419.5 328.5L415.3 327.7L411.4 326.9L407.8 326.3L404.6 325.9L402.1 325.6L400.2 325.5L399.2 325.5L398.9 325.8Z" stroke="#f5b544" stroke-opacity="0.75" stroke-width="9.8" fill="none"/><g opacity="1.0"><line x1="804.4" y1="656.7" x2="774.4" y2="702.7" stroke="#4ade80" stroke-opacity="0.7" stroke-width="1"/><rect x="704.6" y="702.7" width="69.8" height="34" rx="4" fill="#0b0d10" fill-opacity="0.86" stroke="#4ade80" stroke-width="1"/><text x="712.6" y="716.7" font-family="JetBrains Mono, Consolas, Menlo, monospace" font-size="11" font-weight="600" letter-spacing="1.5" fill="#4ade80">CONTACT</text><text x="712.6" y="729.7" font-family="JetBrains Mono, Consolas, Menlo, monospace" font-size="10" fill="#8b95a1">tire_r</text></g><g opacity="1.0"><line x1="350.0" y1="793.8" x2="380.0" y2="839.8" stroke="#4ade80" stroke-opacity="0.7" stroke-width="1"/><rect x="380.0" y="839.8" width="69.8" height="34" rx="4" fill="#0b0d10" fill-opacity="0.86" stroke="#4ade80" stroke-width="1"/><text x="388.0" y="853.8" font-family="JetBrains Mono, Consolas, Menlo, monospace" font-size="11" font-weight="600" letter-spacing="1.5" fill="#4ade80">CONTACT</text><text x="388.0" y="866.8" font-family="JetBrains Mono, Consolas, Menlo, monospace" font-size="10" fill="#8b95a1">tire_f</text></g><g opacity="1.0"><line x1="643.3" y1="571.0" x2="573.3" y2="611.0" stroke="#f5b544" stroke-opacity="0.7" stroke-width="1"/><rect x="496.1" y="611.0" width="77.2" height="34" rx="4" fill="#0b0d10" fill-opacity="0.86" stroke="#f5b544" stroke-width="1"/><text x="504.1" y="625.0" font-family="JetBrains Mono, Consolas, Menlo, monospace" font-size="11" font-weight="600" letter-spacing="1.5" fill="#f5b544">ROTATION</text><text x="504.1" y="638.0" font-family="JetBrains Mono, Consolas, Menlo, monospace" font-size="10" fill="#8b95a1">crank</text></g><g opacity="1.0"><line x1="745.4" y1="574.3" x2="801.4" y2="610.3" stroke="#4ade80" stroke-opacity="0.7" stroke-width="1"/><rect x="801.4" y="610.3" width="69.8" height="34" rx="4" fill="#0b0d10" fill-opacity="0.86" stroke="#4ade80" stroke-width="1"/><text x="809.4" y="624.3" font-family="JetBrains Mono, Consolas, Menlo, monospace" font-size="11" font-weight="600" letter-spacing="1.5" fill="#4ade80">CONTACT</text><text x="809.4" y="637.3" font-family="JetBrains Mono, Consolas, Menlo, monospace" font-size="10" fill="#8b95a1">pedal_l</text></g><g opacity="1.0"><line x1="711.9" y1="250.6" x2="671.9" y2="190.6" stroke="#a78bfa" stroke-opacity="0.7" stroke-width="1"/><rect x="602.1" y="156.6" width="69.8" height="34" rx="4" fill="#0b0d10" fill-opacity="0.86" stroke="#a78bfa" stroke-width="1"/><text x="610.1" y="170.6" font-family="JetBrains Mono, Consolas, Menlo, monospace" font-size="11" font-weight="600" letter-spacing="1.5" fill="#a78bfa">SUPPORT</text><text x="610.1" y="183.6" font-family="JetBrains Mono, Consolas, Menlo, monospace" font-size="10" fill="#8b95a1">saddle</text></g><g opacity="1.0"><line x1="476.5" y1="279.0" x2="516.5" y2="223.0" stroke="#38d6e0" stroke-opacity="0.7" stroke-width="1"/><rect x="516.5" y="189.0" width="55.8" height="34" rx="4" fill="#0b0d10" fill-opacity="0.86" stroke="#38d6e0" stroke-width="1"/><text x="524.5" y="203.0" font-family="JetBrains Mono, Consolas, Menlo, monospace" font-size="11" font-weight="600" letter-spacing="1.5" fill="#38d6e0">GRIP</text><text x="524.5" y="216.0" font-family="JetBrains Mono, Consolas, Menlo, monospace" font-size="10" fill="#8b95a1">grip_l</text></g><g opacity="1.0"><line x1="340.4" y1="612.2" x2="404.4" y2="622.2" stroke="#f5b544" stroke-opacity="0.7" stroke-width="1"/><rect x="404.4" y="622.2" width="77.2" height="34" rx="4" fill="#0b0d10" fill-opacity="0.86" stroke="#f5b544" stroke-width="1"/><text x="412.4" y="636.2" font-family="JetBrains Mono, Consolas, Menlo, monospace" font-size="11" font-weight="600" letter-spacing="1.5" fill="#f5b544">ROTATION</text><text x="412.4" y="649.2" font-family="JetBrains Mono, Consolas, Menlo, monospace" font-size="10" fill="#8b95a1">hub_f</text></g><g opacity="1.0"><line x1="420.4" y1="330.4" x2="490.4" y2="300.4" stroke="#f5b544" stroke-opacity="0.7" stroke-width="1"/><rect x="490.4" y="266.4" width="62.1" height="34" rx="4" fill="#0b0d10" fill-opacity="0.86" stroke="#f5b544" stroke-width="1"/><text x="498.4" y="280.4" font-family="JetBrains Mono, Consolas, Menlo, monospace" font-size="11" font-weight="600" letter-spacing="1.5" fill="#f5b544">HINGE</text><text x="498.4" y="293.4" font-family="JetBrains Mono, Consolas, Menlo, monospace" font-size="10" fill="#8b95a1">headset</text></g></svg>